P1
#generated by llpicture on su 29.9.2013 08.25.18 +0300
32 40
00001001101001011011000000000000
00000101101001011011100000000000
00001001101001010011111000000000
00000101101000010000111010000000
00001001100010000100111011000000
00000110111100001000101011100000
00001110001100100011101011111000
00110010001011100011100000011010
00001111101011100010011110100101
00101100000011100010010110100010
01010010111100100001010110101000
00100010110100010110010110100000
00001010110100011110010110010000
00000010110100011110010110100000
00000100110100011110010110010000
00000010111100011110010110100000
00000110111100011110010110010000
00001110001100011110010110100000
00110010000000011110010110010000
00001100000001011110010110100000
00000000000011011010010110010000
00000000000111011010010110100000
00000000011111001010010110010000
00000001011100001000010110100000
00000011011100100001000110010000
00000111010100010000111101100000
00011111010111000100110001110000
01011000000111000111010001001100
10100101111001000111010111110000
01000101101001000111000000110100
00010101101010000100111101001010
00000101101001101000101101000100
00001001101001111000101101010000
00000101101001111000101101000000
00001001101001111000101100100000
00000101101001111000111101000000
00001001101001111000111101100000
00000101101001111000110001110000
00001001101001111000000001001100
00000101101001111010000000110000
